<svg xmlns="http://www.w3.org/2000/svg" version="1.1" xmlns:xlink="http://www.w3.org/1999/xlink" width="200" height="200"><svg xmlns="http://www.w3.org/2000/svg" version="1.1" xmlns:xlink="http://www.w3.org/1999/xlink" width="200" height="200"><svg xmlns="http://www.w3.org/2000/svg" version="1.1" xmlns:xlink="http://www.w3.org/1999/xlink" viewBox="0 0 200 200"><rect width="200" height="200" fill="url('#gradient')"></rect><defs><linearGradient id="gradient" gradientTransform="rotate(45 0.5 0.5)"><stop offset="0%" stop-color="#1b94ec"></stop><stop offset="100%" stop-color="#d9e241"></stop></linearGradient></defs><g><g fill="#325980" transform="matrix(3.5714008913001356,0,0,3.5714008913001356,8.74894739165137,125.03723836042141)" stroke="#a8c3d2" stroke-width="0.2"><path d="M12.24-14.22L12.24-11.57L7.97-11.57L7.97 0L4.54 0L4.54-11.57L0.35-11.57L0.35-14.22L12.24-14.22ZM19.35-10.64L19.29-7.59L18.20-7.67Q16.65-7.67 16.21-6.69L16.21-6.69L16.21 0L12.92 0L12.92-10.57L16.01-10.57L16.11-9.21Q16.94-10.76 18.43-10.76L18.43-10.76Q18.96-10.76 19.35-10.64L19.35-10.64ZM29.42 0L26.13 0Q25.96-0.32 25.82-0.95L25.82-0.95Q24.91 0.20 23.28 0.20L23.28 0.20Q21.79 0.20 20.74-0.71Q19.70-1.61 19.70-2.98L19.70-2.98Q19.70-4.70 20.97-5.58Q22.24-6.46 24.66-6.46L24.66-6.46L25.67-6.46L25.67-7.01Q25.67-8.47 24.41-8.47L24.41-8.47Q23.24-8.47 23.24-7.31L23.24-7.31L19.95-7.31Q19.95-8.85 21.25-9.80Q22.56-10.76 24.58-10.76Q26.60-10.76 27.77-9.78Q28.95-8.79 28.97-7.07L28.97-7.07L28.97-2.39Q28.99-0.94 29.42-0.17L29.42-0.17L29.42 0ZM24.07-2.15L24.07-2.15Q24.69-2.15 25.09-2.41Q25.50-2.68 25.67-3.01L25.67-3.01L25.67-4.70L24.72-4.70Q23.00-4.70 23.00-3.15L23.00-3.15Q23.00-2.71 23.30-2.43Q23.60-2.15 24.07-2.15ZM35.26-2.34L35.26-2.34Q35.96-2.34 36.34-2.72Q36.72-3.10 36.71-3.77L36.71-3.77L39.79-3.77Q39.79-2.03 38.55-0.92Q37.30 0.20 35.34 0.20L35.34 0.20Q33.04 0.20 31.71-1.25Q30.38-2.70 30.38-5.25L30.38-5.25L30.38-5.39Q30.38-6.99 30.97-8.22Q31.56-9.44 32.68-10.10Q33.79-10.76 35.31-10.76L35.31-10.76Q37.37-10.76 38.58-9.62Q39.79-8.48 39.79-6.52L39.79-6.52L36.71-6.52Q36.71-7.34 36.31-7.78Q35.91-8.22 35.23-8.22L35.23-8.22Q33.96-8.22 33.74-6.59L33.74-6.59Q33.67-6.07 33.67-5.17L33.67-5.17Q33.67-3.57 34.05-2.96Q34.43-2.34 35.26-2.34ZM46.30 0.20L46.30 0.20Q43.87 0.20 42.36-1.25Q40.86-2.71 40.86-5.03L40.86-5.03L40.86-5.30Q40.86-6.92 41.46-8.16Q42.06-9.40 43.21-10.08Q44.37-10.76 45.95-10.76L45.95-10.76Q48.17-10.76 49.46-9.38Q50.75-8.00 50.75-5.53L50.75-5.53L50.75-4.25L44.21-4.25Q44.38-3.36 44.98-2.85Q45.58-2.34 46.52-2.34L46.52-2.34Q48.09-2.34 48.96-3.44L48.96-3.44L50.47-1.66Q49.85-0.81 48.73-0.31Q47.60 0.20 46.30 0.20ZM45.93-8.22L45.93-8.22Q44.48-8.22 44.21-6.31L44.21-6.31L47.53-6.31L47.53-6.56Q47.55-7.35 47.13-7.79Q46.71-8.22 45.93-8.22Z"></path></g></g></svg></svg><style>@media (prefers-color-scheme: light) { :root { filter: none; } }
@media (prefers-color-scheme: dark) { :root { filter: none; } }
</style></svg>